<svg width="16" height="17" viewBox="0 0 16 17" fill="none" xmlns="http://www.w3.org/2000/svg">
<g clip-path="url(#clip0)">
<path d="M7.59781 0.875C4.6878 0.875 2.32031 3.27398 2.32031 6.22271C2.32031 7.21899 2.59266 8.19126 3.1081 9.03478L7.2974 15.8756C7.37765 16.0066 7.51903 16.0863 7.67108 16.0863C7.67225 16.0863 7.6734 16.0863 7.67457 16.0863C7.82794 16.085 7.96961 16.003 8.04839 15.8696L12.1309 8.96252C12.6179 8.13684 12.8753 7.18943 12.8753 6.22271C12.8753 3.27398 10.5078 0.875 7.59781 0.875ZM11.3761 8.50494L7.66442 14.7846L3.85568 8.56519C3.42665 7.86309 3.19403 7.05309 3.19403 6.22271C3.19403 3.76544 5.1728 1.76034 7.59781 1.76034C10.0228 1.76034 11.9987 3.76544 11.9987 6.22271C11.9987 7.02846 11.7814 7.81776 11.3761 8.50494Z" fill="#0060B8"/>
<path d="M7.59969 3.54883C6.14468 3.54883 4.96094 4.74832 4.96094 6.22268C4.96094 7.68763 6.12542 8.89654 7.59969 8.89654C9.09213 8.89654 10.2384 7.67153 10.2384 6.22268C10.2384 4.74832 9.05469 3.54883 7.59969 3.54883ZM7.59969 8.0112C6.62461 8.0112 5.83466 7.20806 5.83466 6.22268C5.83466 5.23977 6.62968 4.43417 7.59969 4.43417C8.56969 4.43417 9.36178 5.23977 9.36178 6.22268C9.36178 7.19368 8.59021 8.0112 7.59969 8.0112Z" fill="#0060B8"/>
</g>
<defs>
<clipPath id="clip0">
<rect width="15.0115" height="15.2113" fill="white" transform="translate(0.09375 0.875)"/>
</clipPath>
</defs>
</svg>
