<svg width="12" height="12" viewBox="0 0 12 12" fill="none" xmlns="http://www.w3.org/2000/svg">
<g clip-path="url(#clip0)">
<path d="M9.75833 1.74414H1.43991C0.697359 1.74414 0.09375 2.35578 0.09375 3.10821V8.86917C0.09375 9.6216 0.697359 10.2332 1.43991 10.2332H9.75606C10.4986 10.2332 11.1022 9.6216 11.1022 8.86917V3.11052C11.1045 2.35809 10.5009 1.74414 9.75833 1.74414ZM10.4895 8.86917C10.4895 9.2777 10.1615 9.61006 9.75833 9.61006H1.43991C1.03675 9.61006 0.708748 9.2777 0.708748 8.86917V3.11052C0.708748 2.70199 1.03675 2.36963 1.43991 2.36963H9.75606C10.1592 2.36963 10.4872 2.70199 10.4872 3.11052V8.86917H10.4895Z" fill="#0060B8"/>
<path d="M7.03602 5.91815L9.72834 3.47159C9.85362 3.35618 9.86501 3.16 9.75112 3.03074C9.63723 2.9038 9.44362 2.89226 9.31606 3.00766L5.6033 6.38438L4.87897 5.72888C4.87669 5.72658 4.87441 5.72427 4.87441 5.72196C4.85847 5.7058 4.84252 5.69196 4.8243 5.67811L1.87686 3.00535C1.74931 2.88995 1.5557 2.90149 1.44181 3.03074C1.32792 3.16 1.33931 3.35618 1.46687 3.47159L4.19108 5.93892L1.47825 8.51242C1.35525 8.63014 1.34842 8.82632 1.46459 8.95327C1.52609 9.01789 1.60809 9.05251 1.69009 9.05251C1.76525 9.05251 1.84042 9.02482 1.89964 8.96942L4.65347 6.35899L5.40058 7.03526C5.4598 7.08834 5.53269 7.11373 5.60558 7.11373C5.67846 7.11373 5.75363 7.08603 5.81058 7.03295L6.57818 6.33591L9.31606 8.97173C9.37529 9.02943 9.45273 9.05713 9.5279 9.05713C9.6099 9.05713 9.68962 9.02482 9.75112 8.96019C9.86729 8.83556 9.86273 8.63706 9.73973 8.51935L7.03602 5.91815Z" fill="#0060B8"/>
</g>
<defs>
<clipPath id="clip0">
<rect width="11.0085" height="11.1549" fill="white" transform="translate(0.09375 0.410156)"/>
</clipPath>
</defs>
</svg>
