<svg width="15" height="15" viewBox="0 0 15 15" fill="none" xmlns="http://www.w3.org/2000/svg">
<g clip-path="url(#clip0)">
<path d="M7.44538 7.54554C7.46091 7.54554 7.47644 7.54554 7.49508 7.54554C7.50129 7.54554 7.5075 7.54554 7.51371 7.54554C7.52303 7.54554 7.53546 7.54554 7.54478 7.54554C8.4549 7.53105 9.19108 7.23244 9.73467 6.6613C10.9306 5.40307 10.7318 3.2461 10.71 3.04026C10.6324 1.49502 9.8496 0.755732 9.20351 0.410733C8.72204 0.152709 8.15981 0.0135497 7.53235 0.00195312H7.51061C7.5075 0.00195312 7.50129 0.00195312 7.49818 0.00195312H7.47955C7.13475 0.00195312 6.4576 0.0541379 5.80839 0.399137C5.15608 0.744136 4.36089 1.48342 4.28323 3.04026C4.26149 3.2461 4.06269 5.40307 5.25859 6.6613C5.79907 7.23244 6.53525 7.53105 7.44538 7.54554ZM5.1126 3.11274C5.1126 3.10404 5.1157 3.09535 5.1157 3.08955C5.21821 1.01086 6.79928 0.787623 7.47644 0.787623H7.48887C7.49508 0.787623 7.5044 0.787623 7.51371 0.787623C8.3524 0.805018 9.77816 1.12392 9.87445 3.08955C9.87445 3.09825 9.87445 3.10694 9.87756 3.11274C9.88066 3.13304 10.0981 5.10446 9.11032 6.14236C8.71893 6.55403 8.19709 6.75698 7.51061 6.76277C7.5044 6.76277 7.50129 6.76277 7.49508 6.76277C7.48887 6.76277 7.48576 6.76277 7.47955 6.76277C6.79618 6.75698 6.27122 6.55403 5.88294 6.14236C4.89827 5.11026 5.10949 3.13014 5.1126 3.11274Z" fill="#C2C2C2"/>
<path d="M13.8792 11.1228C13.8792 11.1199 13.8792 11.117 13.8792 11.1141C13.8792 11.091 13.8761 11.0678 13.8761 11.0417C13.8575 10.4676 13.8171 9.12533 12.469 8.69625C12.4597 8.69335 12.4473 8.69046 12.4379 8.68756C11.037 8.35415 9.8722 7.60037 9.85977 7.59168C9.67029 7.46701 9.40937 7.5105 9.2758 7.68735C9.14223 7.8642 9.18883 8.10773 9.37831 8.23239C9.43111 8.26718 10.6674 9.07024 12.2143 9.44134C12.938 9.68197 13.0188 10.4039 13.0406 11.0649C13.0406 11.091 13.0406 11.1141 13.0437 11.1373C13.0468 11.3983 13.0281 11.8012 12.9784 12.0332C12.4752 12.2999 10.5028 13.2218 7.50214 13.2218C4.51395 13.2218 2.52906 12.297 2.02275 12.0303C1.97305 11.7983 1.9513 11.3954 1.95752 11.1344C1.95752 11.1112 1.96062 11.0881 1.96062 11.062C1.98237 10.401 2.06313 9.67907 2.78688 9.43844C4.33378 9.06734 5.57006 8.26138 5.62287 8.22949C5.81235 8.10483 5.85894 7.8613 5.72538 7.68445C5.59181 7.5076 5.33088 7.46411 5.1414 7.58878C5.12898 7.59748 3.97035 8.35125 2.56323 8.68466C2.55081 8.68756 2.54149 8.69045 2.53217 8.69335C1.18406 9.12533 1.14368 10.4676 1.12505 11.0388C1.12505 11.0649 1.12505 11.0881 1.12194 11.1112C1.12194 11.1141 1.12194 11.117 1.12194 11.1199C1.11883 11.2707 1.11573 12.0448 1.28036 12.4333C1.31142 12.5086 1.36733 12.5724 1.44188 12.6159C1.53507 12.6739 3.76845 14.0017 7.50525 14.0017C11.242 14.0017 13.4754 12.671 13.5686 12.6159C13.6401 12.5724 13.6991 12.5086 13.7301 12.4333C13.8855 12.0477 13.8823 11.2736 13.8792 11.1228Z" fill="#C2C2C2"/>
</g>
<defs>
<clipPath id="clip0">
<rect width="15" height="14" fill="white" transform="translate(0 0.00195312)"/>
</clipPath>
</defs>
</svg>
