<svg width="34" height="32" viewBox="0 0 34 32" fill="none" xmlns="http://www.w3.org/2000/svg">
<path d="M19.204 10.0363C19.1736 9.49973 18.5493 9.08046 17.3008 8.76059C17.3428 8.66651 17.3664 8.56867 17.3667 8.46707V6.27316H17.3615C17.2517 4.44554 9.92524 4.3916 9.08375 4.3916C8.24226 4.3916 0.915822 4.44554 0.805996 6.27316H0.800781V6.31393V8.46801C0.802315 9.06384 1.55453 9.53015 2.67365 9.8773C2.65831 9.92935 2.64911 9.98235 2.64604 10.0363H2.64144V10.0771V12.2274C1.43581 12.5447 0.833606 12.958 0.803849 13.4858H0.800781V13.5266V15.6807C0.801702 16.0955 1.16769 16.4474 1.76651 16.7406C1.74381 16.8043 1.7297 16.8692 1.72571 16.9357H1.72111V16.9764V19.1305C1.72357 20.1735 4.02101 20.8211 6.5737 21.1234C6.59242 21.1272 6.6096 21.135 6.62954 21.135C6.63536 21.135 6.64027 21.1319 6.6461 21.1316C7.13817 21.1883 7.63822 21.2325 8.13305 21.2642C8.14348 21.2655 8.15268 21.2705 8.16342 21.2705C8.16925 21.2705 8.17385 21.2673 8.17937 21.267C8.80765 21.3059 9.4258 21.3257 10.0041 21.3257C10.5824 21.3257 11.2005 21.3059 11.8288 21.2667C11.8343 21.267 11.8392 21.2702 11.8447 21.2702C11.8555 21.2702 11.8647 21.2648 11.8751 21.2639C12.3699 21.2322 12.87 21.1883 13.3621 21.1312C13.3679 21.1312 13.3728 21.1344 13.3786 21.1344C13.3986 21.1344 13.4157 21.1265 13.4345 21.1228C15.9871 20.8205 18.2843 20.1726 18.287 19.1293V16.9354H18.2821C18.2607 16.5509 17.9401 16.2301 17.3069 15.962C17.3455 15.8713 17.3667 15.7773 17.3667 15.6797V13.6301C18.468 13.2839 19.2058 12.8207 19.2074 12.2302V10.0363H19.204ZM16.72 15.7816L16.6154 15.8754C16.4544 16.0206 16.1859 16.167 15.8328 16.3082V14.813C16.1976 14.6831 16.508 14.5392 16.7532 14.3814V15.6791C16.7532 15.7114 16.7415 15.7459 16.72 15.7816ZM9.85867 17.2389C9.81388 17.2402 9.76878 17.2408 9.72368 17.2417C9.61417 17.2439 9.50188 17.2446 9.39083 17.2455V15.6791C9.47519 15.6782 9.55956 15.6769 9.64392 15.6753C9.66018 15.675 9.67644 15.6747 9.6927 15.6744C10.0016 15.6684 10.3105 15.6587 10.6179 15.6443V17.2101C10.5523 17.2135 10.4863 17.2166 10.4198 17.2195C10.2351 17.2279 10.0486 17.2342 9.85867 17.2389ZM8.51897 17.2433C8.37847 17.2408 8.23858 17.2373 8.09961 17.233C8.08243 17.2323 8.06525 17.2317 8.04807 17.2311C7.88088 17.2254 7.71491 17.2182 7.55017 17.2101V15.6446C7.85756 15.6593 8.16649 15.6691 8.47541 15.6747C8.49167 15.675 8.50793 15.6753 8.52388 15.6756C8.60824 15.6772 8.69261 15.6785 8.77697 15.6794V17.2468C8.71746 17.2461 8.65794 17.2461 8.59873 17.2452C8.57174 17.2446 8.54566 17.2436 8.51897 17.2433ZM2.97797 16.5283C2.96785 16.5252 2.95834 16.5224 2.94822 16.5195V15.0046C3.23475 15.0836 3.54275 15.1557 3.86855 15.2213V16.7519C3.58693 16.6908 3.32709 16.6265 3.09056 16.5606C3.05313 16.5496 3.01448 16.5393 2.97797 16.5283ZM9.44421 19.1252C9.52857 19.1267 9.61294 19.128 9.6973 19.1289V20.6966C9.27334 20.6925 8.8641 20.68 8.4702 20.6602V19.0944C8.77759 19.1092 9.08651 19.1189 9.39543 19.1246C9.41169 19.1246 9.42795 19.1249 9.44421 19.1252ZM10.6127 19.1242C10.9216 19.1183 11.2306 19.1086 11.538 19.0941V20.6599C11.1441 20.6797 10.7348 20.6922 10.3109 20.6963V19.1286C10.3952 19.1277 10.4796 19.1264 10.5639 19.1249C10.5802 19.1249 10.5965 19.1246 10.6127 19.1242ZM13.0718 18.9825V20.5398C12.777 20.5715 12.4703 20.5994 12.1515 20.6223V19.0584C12.4626 19.0377 12.77 19.0123 13.0718 18.9825ZM13.6854 18.9148C14.0017 18.8759 14.3088 18.8317 14.6057 18.7824V20.3222C14.3167 20.3742 14.0097 20.4222 13.6854 20.4658V18.9148ZM15.2193 18.6705C15.5451 18.6049 15.8531 18.5328 16.1396 18.4538V19.9687C15.8663 20.0493 15.5586 20.1274 15.2193 20.2011V18.6705ZM4.78888 18.6705V20.2011C4.44958 20.1274 4.14188 20.0493 3.86855 19.9687V18.4538C4.15508 18.5328 4.46308 18.6052 4.78888 18.6705ZM5.40243 18.7827C5.69939 18.832 6.00647 18.8762 6.32276 18.9151V20.4661C5.9985 20.4225 5.69141 20.3745 5.40243 20.3225V18.7827ZM6.93631 18.9825C7.23818 19.0123 7.54557 19.0377 7.85664 19.0587V20.6226C7.5379 20.5997 7.23112 20.5718 6.93631 20.5401V18.9825ZM6.1752 17.1072C6.14391 17.1041 6.11292 17.1006 6.08194 17.0975C6.05985 17.0953 6.03807 17.0925 6.01598 17.0903V15.5333C6.31785 15.5631 6.62524 15.5885 6.93631 15.6095V17.1721C6.67862 17.1533 6.424 17.132 6.1752 17.1072ZM5.40243 15.4652V17.0163C5.07817 16.9727 4.77108 16.9247 4.4821 16.8726V15.3329C4.77906 15.3821 5.08614 15.4267 5.40243 15.4652ZM11.4355 17.1574C11.368 17.1627 11.2999 17.168 11.2312 17.1731V15.6092C11.5423 15.5882 11.8496 15.5631 12.1515 15.533V17.0903C11.9619 17.1107 11.768 17.1298 11.5689 17.1464C11.5245 17.1505 11.48 17.1539 11.4355 17.1574ZM12.7651 17.0163V15.4652C13.0814 15.4263 13.3884 15.3821 13.6854 15.3329V16.8726C13.3964 16.9247 13.0893 16.973 12.7651 17.0163ZM14.2989 15.2209C14.6247 15.1554 14.9327 15.0833 15.2193 15.0042V16.5192C14.9459 16.5998 14.6382 16.6779 14.2989 16.7516V15.2209ZM10.1038 13.7884C9.87308 13.7825 9.6476 13.7734 9.42611 13.7624C9.41415 13.7618 9.40218 13.7612 9.39052 13.7608V12.1951C9.69792 12.2098 10.0068 12.2195 10.3158 12.2252C10.332 12.2255 10.3483 12.2258 10.3642 12.2261C10.4486 12.2277 10.533 12.2289 10.6173 12.2299V13.7957C10.4679 13.7941 10.3173 13.7935 10.1716 13.79C10.1492 13.7894 10.1262 13.7891 10.1038 13.7884ZM2.94822 9.30687V7.7919C3.23475 7.87092 3.54275 7.94305 3.86855 8.00859V9.53924C3.83081 9.53109 3.79185 9.52294 3.75504 9.51478C3.59183 9.47809 3.43262 9.43983 3.28046 9.39938C3.16449 9.36896 3.05436 9.33792 2.94822 9.30687ZM8.52388 8.46299C8.60824 8.46456 8.69261 8.46581 8.77697 8.46675V10.0325C8.36405 10.0285 7.95358 10.0175 7.54987 9.99678V8.43226C7.85726 8.447 8.16618 8.45672 8.4751 8.46236C8.49136 8.46236 8.50762 8.46268 8.52388 8.46299ZM9.69239 8.46205C10.0013 8.45609 10.3102 8.44637 10.6176 8.43194V9.99646C10.5655 9.99897 10.5155 10.0027 10.463 10.0052C10.4587 10.0056 10.4544 10.0056 10.4498 10.0059C10.244 10.0153 10.0341 10.0222 9.82155 10.0272C9.78841 10.0281 9.75528 10.0285 9.72215 10.0294C9.61294 10.0316 9.50127 10.0319 9.39052 10.0332V8.46675C9.47489 8.46581 9.55925 8.46456 9.64362 8.46299C9.65987 8.46268 9.67613 8.46236 9.69239 8.46205ZM16.6829 8.61947L16.6743 8.61759L16.5627 8.70634C16.4007 8.83523 16.1519 8.96568 15.8328 9.09175V7.59998C16.1976 7.47015 16.508 7.32621 16.7532 7.16847V8.46613C16.7532 8.51379 16.7286 8.56522 16.6829 8.61947ZM12.7651 9.80172V8.25257C13.0814 8.21368 13.3884 8.16947 13.6854 8.12023V9.65747C13.3946 9.71015 13.0884 9.75845 12.7651 9.80172ZM14.2989 9.53674V8.00859C14.6247 7.94305 14.9327 7.87092 15.2193 7.7919V9.30342C14.9444 9.38527 14.6349 9.46335 14.2989 9.53674ZM12.1515 8.3203V9.87573C11.8552 9.90772 11.5484 9.93563 11.2312 9.95883V8.39651C11.5423 8.3755 11.8496 8.3501 12.1515 8.3203ZM6.01598 9.87636V8.3203C6.31785 8.3501 6.62524 8.3755 6.93631 8.39651V9.95758C6.62401 9.93469 6.31601 9.90866 6.01598 9.87636ZM5.40243 8.25257V9.80204C5.34169 9.79388 5.27849 9.7873 5.21836 9.77883C5.1791 9.77319 5.14167 9.76723 5.10302 9.76158C4.9257 9.73555 4.75237 9.70764 4.58242 9.67848C4.54836 9.67252 4.51554 9.66625 4.4821 9.66029V8.12055C4.77906 8.16947 5.08614 8.214 5.40243 8.25257ZM8.70089 13.7176C8.65948 13.7144 8.61775 13.7113 8.57665 13.7082C8.38031 13.6925 8.18857 13.6752 8.00144 13.6561C7.96125 13.652 7.92106 13.6476 7.88118 13.6436C7.8729 13.6426 7.86492 13.6414 7.85664 13.6407V12.0834C8.15851 12.1132 8.4659 12.1386 8.77697 12.1596V13.7226C8.75212 13.7207 8.72574 13.7194 8.70089 13.7176ZM6.67402 13.4833C6.55254 13.4636 6.43841 13.4422 6.32276 13.4215V11.8837C6.61972 11.9329 6.9268 11.9771 7.24309 12.016V13.567C7.05534 13.5416 6.87158 13.5153 6.69519 13.4871C6.68813 13.4855 6.68107 13.4843 6.67402 13.4833ZM5.70921 11.7714V13.2995C5.37022 13.2252 5.06283 13.1462 4.78888 13.064V11.5547C5.07541 11.6337 5.38341 11.7062 5.70921 11.7714ZM4.17532 11.3631V12.853C3.69307 12.6626 3.382 12.4682 3.28076 12.2951L3.26021 12.26C3.25837 12.2503 3.2553 12.2399 3.25499 12.2302V10.9316C3.50011 11.0893 3.81057 11.2333 4.17532 11.3631ZM11.5331 12.2252C11.842 12.2192 12.1509 12.2095 12.4583 12.1951V13.7593C12.0552 13.7797 11.6453 13.7909 11.2312 13.7953V12.2299C11.3155 12.2289 11.3999 12.2277 11.4843 12.2261C11.5005 12.2258 11.5168 12.2255 11.5331 12.2252ZM15.4975 13.4284C15.3629 13.4523 15.2269 13.4758 15.0874 13.4974C15.0073 13.51 14.9254 13.5219 14.8432 13.5338C14.7656 13.5451 14.6849 13.5548 14.606 13.5652V12.0157C14.9223 11.9768 15.2294 11.9326 15.5264 11.8834V13.4231C15.5165 13.425 15.507 13.4269 15.4975 13.4284ZM13.4203 13.6962C13.3059 13.706 13.1878 13.7122 13.0718 13.7207V12.1596C13.3829 12.1386 13.6903 12.1135 13.9922 12.0834V13.6392C13.8139 13.6583 13.636 13.6774 13.4529 13.6931C13.4418 13.694 13.4314 13.6953 13.4203 13.6962ZM16.9262 13.1083C16.7734 13.1518 16.6117 13.1926 16.4467 13.2324C16.3703 13.2506 16.2924 13.2688 16.2126 13.2864C16.189 13.2917 16.1638 13.2964 16.1399 13.3017V11.7717C16.4657 11.7062 16.7737 11.6341 17.0602 11.555V13.07C17.0161 13.0825 16.9716 13.0954 16.9262 13.1083ZM18.5904 10.0567C18.5622 10.2696 18.0901 10.5528 17.2474 10.819C16.162 11.1618 14.4637 11.4757 12.3113 11.5729C12.2012 11.5776 12.0914 11.5823 11.9791 11.5861C11.8874 11.5892 11.7953 11.592 11.7018 11.5945C11.4478 11.6002 11.1901 11.6043 10.9244 11.6043C10.6587 11.6043 10.401 11.6002 10.147 11.5942C10.0538 11.592 9.96174 11.5889 9.86971 11.5858C9.75712 11.5823 9.6473 11.5773 9.53747 11.5726C7.38513 11.4754 5.6865 11.1615 4.60144 10.8187C3.76547 10.5547 3.29426 10.2737 3.25929 10.0617C3.26082 10.0557 3.26082 10.0507 3.2645 10.0432C3.28536 10.0485 3.30868 10.0529 3.32985 10.0582C3.4498 10.0874 3.57281 10.1156 3.69798 10.1426C4.30754 10.2768 4.98307 10.3869 5.70276 10.4709C5.70522 10.4709 5.70706 10.4722 5.70921 10.4722C5.70982 10.4722 5.71043 10.4719 5.71074 10.4719C6.20097 10.5289 6.7096 10.5738 7.23174 10.6055C7.23573 10.6055 7.2391 10.6077 7.24309 10.6077C7.24524 10.6077 7.24677 10.6064 7.24892 10.6064C7.62472 10.629 8.00543 10.6456 8.39074 10.6544C8.62665 10.6603 8.85827 10.6635 9.08375 10.6635C9.24481 10.6635 9.40985 10.6616 9.57643 10.6585C11.8055 10.6233 13.8713 10.3524 15.3089 9.93249C15.3751 9.91336 15.4399 9.8936 15.5037 9.87385C15.5426 9.86162 15.5825 9.8497 15.6202 9.83747C15.7313 9.80109 15.8377 9.76378 15.9405 9.72489C15.9583 9.71799 15.9752 9.71109 15.993 9.70419C16.0798 9.67064 16.1632 9.63583 16.243 9.60039C16.266 9.59005 16.2896 9.58001 16.312 9.56966C16.397 9.53046 16.4792 9.49032 16.5553 9.44862C16.5897 9.43011 16.6194 9.41098 16.6516 9.39217C16.6884 9.37053 16.7252 9.34858 16.7593 9.32631C16.7786 9.31377 16.8016 9.30185 16.82 9.28931C18.1935 9.59381 18.5555 9.92685 18.5904 10.0567ZM9.08375 5.01879C14.1422 5.01879 16.7007 5.83288 16.7486 6.30013C16.7114 6.51212 16.2405 6.79216 15.4067 7.05558C14.3213 7.39834 12.623 7.71225 10.4707 7.80946C10.3606 7.81416 10.2507 7.81887 10.1384 7.82263C10.0467 7.82577 9.95469 7.82859 9.86112 7.8311C9.60711 7.83706 9.34942 7.84113 9.08375 7.84113C8.81808 7.84113 8.56039 7.83706 8.30638 7.8311C8.21312 7.8289 8.12108 7.82577 8.02905 7.82263C7.91646 7.81918 7.80664 7.81416 7.69681 7.80946C5.54447 7.71225 3.84585 7.39834 2.76078 7.05558C1.92665 6.79216 1.45606 6.51212 1.41894 6.30013C1.46679 5.83288 4.02531 5.01879 9.08375 5.01879ZM1.41433 8.46707V7.16847C1.65945 7.32621 1.96991 7.47015 2.33466 7.59998V9.10147C1.73798 8.87286 1.41495 8.64362 1.41433 8.46707ZM2.90036 12.8069C2.90496 12.8119 2.91202 12.8163 2.91662 12.8213C3.3366 13.2547 4.20631 13.5953 5.28892 13.8493C5.31377 13.8552 5.34015 13.8609 5.36531 13.8668C5.44476 13.885 5.52545 13.9029 5.60705 13.9201C6.60131 14.1365 7.78823 14.293 9.08129 14.3705C9.08221 14.3705 9.08283 14.3708 9.08344 14.3708C9.08405 14.3708 9.08436 14.3705 9.08467 14.3705C9.50004 14.3952 9.92493 14.4125 10.3587 14.42C10.5508 14.4241 10.7397 14.4266 10.9244 14.4266C11.1361 14.4266 11.3533 14.4241 11.5742 14.4188C11.9754 14.4103 12.3709 14.3934 12.7608 14.3702C12.7623 14.3702 12.7635 14.3711 12.7651 14.3711C12.7678 14.3711 12.77 14.3695 12.7727 14.3695C14.0692 14.2914 15.2855 14.1334 16.3142 13.906C16.0914 14.0252 15.7865 14.1484 15.4067 14.2686C14.2609 14.6304 12.431 14.96 10.1053 15.0365C10.0363 15.0387 9.96819 15.0412 9.89824 15.0431C9.82308 15.045 9.74669 15.0463 9.67031 15.0478C9.47734 15.051 9.28315 15.0538 9.08375 15.0538C8.81808 15.0538 8.56039 15.0497 8.30638 15.0438C8.21312 15.0416 8.12108 15.0384 8.02905 15.0353C7.91646 15.0318 7.80664 15.0268 7.69681 15.0221C5.54447 14.9249 3.84585 14.611 2.76078 14.2682C1.91714 14.0017 1.44501 13.7182 1.41771 13.5053C1.45176 13.3874 1.76191 13.0923 2.90036 12.8069ZM1.41433 15.6797V14.3811C1.65945 14.5389 1.96991 14.6828 2.33466 14.8126V16.3082L2.15949 16.2385L2.15581 16.2423C1.67417 16.0382 1.41495 15.8378 1.41433 15.6797ZM2.33466 19.1293V17.8307C2.57978 17.9884 2.89024 18.1323 3.25499 18.2622V19.7637C2.65831 19.535 2.33528 19.3058 2.33466 19.1293ZM16.7532 19.7637V18.2625C17.1179 18.1327 17.4284 17.9887 17.6735 17.831V19.1286C17.6732 19.3052 17.3498 19.5347 16.7532 19.7637ZM17.6695 16.9595C17.6361 17.1718 17.1649 17.4534 16.327 17.7181C15.2417 18.0608 13.5434 18.3748 11.391 18.472C11.2809 18.4767 11.1711 18.4814 11.0588 18.4851C10.967 18.4883 10.875 18.4911 10.7814 18.4936C10.5274 18.4992 10.2697 18.5033 10.0041 18.5033C9.73841 18.5033 9.48041 18.4992 9.22609 18.4933C9.13375 18.4911 9.04264 18.488 8.95153 18.4848C8.83833 18.4811 8.72789 18.4764 8.61714 18.4716C6.4648 18.3744 4.76648 18.0605 3.68111 17.7178C2.86968 17.4616 2.40093 17.1894 2.34203 16.9793C2.43345 17.0119 2.52824 17.0435 2.62549 17.0746C2.63531 17.0777 2.64512 17.0809 2.65494 17.0837C2.73777 17.1097 2.82244 17.1348 2.90926 17.1593C2.94208 17.1687 2.97521 17.1781 3.00865 17.1872C3.05774 17.2007 3.10805 17.2135 3.15836 17.2267C4.27564 17.5193 5.70184 17.7266 7.24156 17.8197C7.24217 17.8197 7.24248 17.82 7.24309 17.82C7.2434 17.82 7.2437 17.8197 7.24401 17.8197C7.71951 17.8485 8.20514 17.8664 8.69598 17.8724C8.82667 17.8749 8.95644 17.8761 9.08375 17.8761C9.25278 17.8761 9.4258 17.8739 9.60097 17.8708C10.0486 17.8633 10.4903 17.8463 10.9223 17.82C10.9232 17.82 10.9238 17.8206 10.9247 17.8206C10.9262 17.8206 10.9272 17.8197 10.9287 17.8197C11.4548 17.7874 11.9641 17.7413 12.4534 17.6839C12.4552 17.6839 12.4568 17.6848 12.4586 17.6848C12.4653 17.6848 12.4709 17.6814 12.4776 17.6808C13.0225 17.6165 13.5391 17.5375 14.0186 17.4456C14.1173 17.4271 14.2146 17.4079 14.3109 17.3882C14.3324 17.3838 14.3539 17.3794 14.3753 17.3747C15.2812 17.1847 16.0654 16.9385 16.6035 16.6334C16.6329 16.6171 16.6605 16.6001 16.6884 16.5835C16.7225 16.5628 16.755 16.5418 16.7866 16.5205C16.8161 16.501 16.8501 16.4822 16.8771 16.4625C17.4827 16.6832 17.6496 16.8808 17.6695 16.9595ZM17.6735 12.8646V11.3634C18.0382 11.2336 18.3487 11.0897 18.5938 10.9319V12.2296C18.5935 12.4061 18.2702 12.6357 17.6735 12.8646Z" fill="#0060B8"/>
<rect x="17.957" y="0.879883" width="15.8426" height="26.6138" transform="rotate(23.9319 17.957 0.879883)" fill="white"/>
<path d="M33.3429 13.4224L26.3063 6.38589C25.9265 6.00607 25.4199 5.79688 24.8799 5.79688C24.34 5.79688 23.8334 6.00599 23.4535 6.3858L12.2999 17.5394C11.9201 17.9193 11.7109 18.4258 11.7109 18.9658C11.7109 19.5058 11.9201 20.0124 12.2999 20.3921L13.1676 21.2598C13.1677 21.2599 13.1678 21.26 13.1679 21.26C13.1679 21.2601 13.168 21.2602 13.1681 21.2603L18.9996 27.0918H18.1922C17.9365 27.0918 17.7292 27.2991 17.7292 27.5547C17.7292 27.8104 17.9365 28.0177 18.1922 28.0177H20.7611C20.7617 28.0177 20.7623 28.0177 20.7629 28.0177C20.7635 28.0177 20.7641 28.0177 20.7647 28.0177L27.4509 28.0178C27.7065 28.0178 27.9138 27.8105 27.9138 27.5548C27.9138 27.2991 27.7065 27.0919 27.4509 27.0919L22.5263 27.0918L33.343 16.2751C34.1294 15.4886 34.1294 14.2089 33.3429 13.4224ZM32.6883 15.6205L21.5346 26.7741C21.3301 26.9786 21.0566 27.0914 20.7646 27.0918H20.7611C20.4691 27.0913 20.1957 26.9786 19.9913 26.7741L14.1499 20.9327L24.8613 10.2212C25.0421 10.0404 25.0421 9.74729 24.8613 9.56652C24.6805 9.38575 24.3875 9.38575 24.2066 9.56656L13.4952 20.2781L12.9546 19.7375C12.7497 19.5326 12.6368 19.2585 12.6368 18.9658C12.6368 18.6731 12.7497 18.399 12.9546 18.1941L24.1082 7.04052C24.3131 6.83562 24.5872 6.72277 24.8799 6.72277C25.1726 6.72277 25.4467 6.83562 25.6517 7.04056L28.1561 9.54495L17.4445 20.2566C17.2638 20.4373 17.2638 20.7305 17.4445 20.9113C17.5349 21.0017 17.6534 21.0469 17.7719 21.0469C17.8903 21.0469 18.0088 21.0016 18.0992 20.9113L28.8108 10.1997L32.6883 14.077C33.1137 14.5026 33.1137 15.195 32.6883 15.6205Z" fill="#0060B8"/>
<path d="M23.1168 19.1668C22.936 18.986 22.643 18.9861 22.4621 19.1668L18.8192 22.8097C18.6384 22.9905 18.6384 23.2835 18.8192 23.4644C18.9096 23.5548 19.0281 23.6 19.1465 23.6C19.265 23.6 19.3834 23.5548 19.4738 23.4644L23.1168 19.8215C23.2976 19.6407 23.2976 19.3476 23.1168 19.1668Z" fill="#0060B8"/>
<path d="M21.6258 22.6249L20.1317 24.119C19.9509 24.2998 19.9509 24.5929 20.1317 24.7737C20.2221 24.8641 20.3406 24.9093 20.459 24.9093C20.5775 24.9093 20.6959 24.8641 20.7863 24.7737L22.2805 23.2796C22.4612 23.0988 22.4612 22.8057 22.2805 22.6249C22.0997 22.4441 21.8067 22.4441 21.6258 22.6249Z" fill="#0060B8"/>
<path d="M22.9961 21.2508L22.7997 21.4471C22.6189 21.6279 22.6189 21.921 22.7996 22.1019C22.89 22.1923 23.0085 22.2375 23.127 22.2375C23.2454 22.2375 23.3639 22.1923 23.4543 22.1019L23.6507 21.9055C23.8315 21.7247 23.8315 21.4316 23.6507 21.2508C23.47 21.0701 23.1768 21.07 22.9961 21.2508Z" fill="#0060B8"/>
<path d="M29.3794 12.9051C29.2926 12.8183 29.1749 12.7695 29.0521 12.7695C28.9293 12.7695 28.8116 12.8183 28.7248 12.9051L26.7606 14.8692C26.6738 14.9561 26.625 15.0738 26.625 15.1966C26.625 15.3194 26.6738 15.4371 26.7606 15.5239L28.07 16.8332C28.1604 16.9236 28.2789 16.9688 28.3974 16.9688C28.5159 16.9688 28.6343 16.9236 28.7247 16.8332L30.6888 14.8692C30.8696 14.6884 30.8696 14.3953 30.6888 14.2145L29.3794 12.9051ZM28.3973 15.8513L27.7426 15.1966L29.052 13.8872L29.7067 14.5419L28.3973 15.8513Z" fill="#0060B8"/>
<path d="M25.6153 9.27567C25.7338 9.27567 25.8523 9.23044 25.9427 9.13999L26.1391 8.94351C26.3198 8.7627 26.3197 8.46956 26.1389 8.28883C25.9582 8.10811 25.665 8.10815 25.4843 8.28896L25.2879 8.48544C25.1071 8.66626 25.1072 8.9594 25.288 9.14012C25.3784 9.23053 25.4968 9.27567 25.6153 9.27567Z" fill="#0060B8"/>
<path d="M16.3671 21.3368L16.1707 21.5332C15.99 21.7139 15.99 22.007 16.1707 22.1879C16.2611 22.2783 16.3796 22.3234 16.4981 22.3234C16.6165 22.3234 16.735 22.2783 16.8254 22.1879L17.0218 21.9915C17.2026 21.8107 17.2026 21.5176 17.0218 21.3368C16.841 21.156 16.5479 21.156 16.3671 21.3368Z" fill="#0060B8"/>
</svg>
