<svg width="27" height="28" viewBox="0 0 27 28" fill="none" xmlns="http://www.w3.org/2000/svg">
<g clip-path="url(#clip0)">
<path d="M24.8926 4.10156H2.11289C1.08581 4.10156 0.25 4.93737 0.25 5.96446V21.676C0.25 22.7031 1.08581 23.5389 2.11289 23.5389H24.8926C25.9197 23.5389 26.7555 22.7031 26.7555 21.676V5.96446C26.7555 4.93737 25.9197 4.10156 24.8926 4.10156ZM25.872 21.676C25.872 22.2163 25.4329 22.6554 24.8926 22.6554H2.11289C1.57262 22.6554 1.13352 22.2163 1.13352 21.676V5.96446C1.13352 5.42419 1.57262 4.98508 2.11289 4.98508H24.8926C25.4329 4.98508 25.872 5.42419 25.872 5.96446V21.676Z" fill="#0060B8"/>
<path d="M10.2488 16.5799L8.64165 15.7591V15.5881C9.36083 15.1954 9.86664 14.5487 10.1489 13.6603C10.577 13.4332 10.8504 12.991 10.8504 12.4954V12.0536C10.8504 11.6446 10.66 11.2651 10.342 11.0159C10.0663 9.34609 8.90096 8.49968 6.87461 8.49968C6.77875 8.49968 6.6851 8.50321 6.59366 8.51028C6.21198 8.54164 5.65315 8.50851 5.16943 8.18338C4.98875 8.06145 4.85224 7.94306 4.76522 7.83306C4.61679 7.64355 4.36719 7.57729 4.14587 7.66829C3.92411 7.75929 3.79379 7.98105 3.82162 8.21916C3.84018 8.38438 3.86801 8.57654 3.90997 8.78726C3.99523 9.21798 3.99523 9.21798 3.87552 9.47552C3.83046 9.57315 3.7748 9.69198 3.70942 9.85234C3.56319 10.2106 3.45938 10.6029 3.39974 11.0217C3.08609 11.2713 2.89879 11.6485 2.89879 12.0536V12.4954C2.89879 12.991 3.17224 13.4332 3.6003 13.6603C3.88259 14.5491 4.3884 15.1958 5.10758 15.5881V15.7542L3.44259 16.575C2.83473 16.9063 2.45703 17.5425 2.45703 18.2351V18.8205C2.45703 19.1752 2.45703 20.0053 6.87461 20.0053C11.2922 20.0053 11.2922 19.1752 11.2922 18.8205V18.2705C11.2922 17.55 10.8924 16.9028 10.2488 16.5799ZM10.4087 18.7206C10.133 18.8885 9.01184 19.1218 6.87461 19.1218C4.73739 19.1218 3.6162 18.8885 3.34055 18.7206V18.2351C3.34055 17.8663 3.54155 17.527 3.84945 17.3596L5.55331 16.5198C5.81925 16.3899 5.99066 16.1147 5.99066 15.8183V15.0218L5.72383 14.9069C5.05369 14.618 4.61811 14.0672 4.39193 13.2221L4.32876 12.9866L4.0964 12.9142C3.91174 12.8563 3.78231 12.6845 3.78231 12.4954V12.0536C3.78231 11.8937 3.87375 11.7453 4.0213 11.6666L4.22848 11.5562L4.25278 11.3225C4.29651 10.9081 4.38884 10.526 4.52755 10.1872C4.58631 10.0436 4.63622 9.93627 4.67687 9.84836C4.82662 9.52676 4.88096 9.36066 4.84341 9.02007C5.36292 9.31693 5.98712 9.44327 6.66434 9.39159C6.73281 9.38584 6.80305 9.38319 6.87506 9.38319C8.529 9.38319 9.33653 9.98222 9.49424 11.326L9.52163 11.5566L9.72705 11.6653C9.87459 11.7439 9.96692 11.8928 9.96692 12.0536V12.4954C9.96692 12.6845 9.83749 12.8563 9.65239 12.9137L9.42002 12.9862L9.35685 13.2216C9.13067 14.0667 8.6951 14.6176 8.02495 14.9065L7.75813 15.0218V15.8218C7.75813 16.1174 7.92158 16.3837 8.18399 16.5176L9.85162 17.3697C10.1953 17.5411 10.4087 17.8866 10.4087 18.2705V18.7206Z" fill="#0060B8"/>
<path d="M13.5043 10.7282H17.9218C18.1661 10.7282 18.3636 10.5308 18.3636 10.2865C18.3636 10.0422 18.1661 9.84473 17.9218 9.84473H13.5043C13.26 9.84473 13.0625 10.0422 13.0625 10.2865C13.0625 10.5308 13.26 10.7282 13.5043 10.7282Z" fill="#0060B8"/>
<path d="M19.6879 10.7282H20.1296C20.3739 10.7282 20.5714 10.5308 20.5714 10.2865C20.5714 10.0422 20.3739 9.84473 20.1296 9.84473H19.6879C19.4436 9.84473 19.2461 10.0422 19.2461 10.2865C19.2461 10.5308 19.4436 10.7282 19.6879 10.7282Z" fill="#0060B8"/>
<path d="M13.946 17.3545H13.5043C13.26 17.3545 13.0625 17.552 13.0625 17.7963C13.0625 18.0405 13.26 18.238 13.5043 18.238H13.946C14.1903 18.238 14.3878 18.0405 14.3878 17.7963C14.3878 17.552 14.1903 17.3545 13.946 17.3545Z" fill="#0060B8"/>
<path d="M16.5948 17.3545H15.7113C15.467 17.3545 15.2695 17.552 15.2695 17.7963C15.2695 18.0405 15.467 18.238 15.7113 18.238H16.5948C16.8391 18.238 17.0366 18.0405 17.0366 17.7963C17.0366 17.552 16.8391 17.3545 16.5948 17.3545Z" fill="#0060B8"/>
<path d="M18.8054 17.3545H18.3636C18.1193 17.3545 17.9219 17.552 17.9219 17.7963C17.9219 18.0405 18.1193 18.238 18.3636 18.238H18.8054C19.0497 18.238 19.2472 18.0405 19.2472 17.7963C19.2472 17.552 19.0497 17.3545 18.8054 17.3545Z" fill="#0060B8"/>
<path d="M21.4542 17.3545H20.5707C20.3264 17.3545 20.1289 17.552 20.1289 17.7963C20.1289 18.0405 20.3264 18.238 20.5707 18.238H21.4542C21.6985 18.238 21.8959 18.0405 21.8959 17.7963C21.8959 17.552 21.6985 17.3545 21.4542 17.3545Z" fill="#0060B8"/>
<path d="M22.9055 17.482C22.8255 17.5655 22.7773 17.6808 22.7773 17.7956C22.7773 17.9105 22.8255 18.0253 22.9055 18.1093C22.9889 18.1888 23.1042 18.2374 23.2191 18.2374C23.334 18.2374 23.4488 18.1888 23.5327 18.1093C23.6123 18.0253 23.6609 17.9105 23.6609 17.7956C23.6609 17.6808 23.6123 17.5655 23.5327 17.482C23.3649 17.3185 23.0689 17.3185 22.9055 17.482Z" fill="#0060B8"/>
<path d="M23.2229 12.4951H13.5043C13.26 12.4951 13.0625 12.6926 13.0625 12.9369C13.0625 13.1812 13.26 13.3786 13.5043 13.3786H23.2229C23.4672 13.3786 23.6647 13.1812 23.6647 12.9369C23.6647 12.6926 23.4672 12.4951 23.2229 12.4951Z" fill="#0060B8"/>
<path d="M23.2229 15.1455H13.5043C13.26 15.1455 13.0625 15.343 13.0625 15.5873C13.0625 15.8316 13.26 16.029 13.5043 16.029H23.2229C23.4672 16.029 23.6647 15.8316 23.6647 15.5873C23.6647 15.343 23.4672 15.1455 23.2229 15.1455Z" fill="#0060B8"/>
</g>
<defs>
<clipPath id="clip0">
<rect width="26.5055" height="26.5055" fill="white" transform="translate(0.25 0.567383)"/>
</clipPath>
</defs>
</svg>
