<svg width="20" height="27" viewBox="0 0 20 27" fill="none" xmlns="http://www.w3.org/2000/svg">
<path d="M19.1554 21.5902C18.9291 21.5902 18.7456 21.7592 18.7456 21.9677V25.5167C18.7456 25.6316 18.6441 25.7251 18.5193 25.7251H16.3162V18.2914C16.3162 18.083 16.1327 17.914 15.9064 17.914C15.68 17.914 15.4965 18.083 15.4965 18.2914V25.7252H11.0602L12.3467 24.4216C12.4873 24.2792 12.5535 24.0763 12.524 23.8787C12.5234 23.8749 12.5228 23.871 12.5221 23.8672L11.2968 17.2001L11.6269 16.7424C11.8094 16.8618 11.95 16.9767 12.2136 16.9767C12.4818 16.9767 12.7326 16.8384 12.856 16.6109V16.6108L14.1483 14.2251L17.0924 15.2753C17.1989 15.3174 18.7455 15.9589 18.7455 17.6528V20.2061C18.7454 20.4145 18.9289 20.5835 19.1553 20.5835C19.3816 20.5835 19.5651 20.4145 19.5651 20.2061V17.6528C19.5651 15.4209 17.4903 14.6097 17.402 14.5762C17.3995 14.5752 17.3968 14.5742 17.3942 14.5733L12.4944 12.8255V11.7671C13.2726 11.2096 13.8122 10.3833 13.9477 9.44047C14.3357 9.4153 14.6958 9.28182 14.9898 9.04894C15.3738 8.7448 15.5941 8.30214 15.5941 7.83467C15.5941 7.44672 15.4422 7.07629 15.1713 6.78764V5.38931C15.1713 2.80967 12.8927 0.710938 10.092 0.710938C7.29121 0.710938 5.01264 2.80967 5.01264 5.38931V6.82429C4.73893 7.11001 4.59007 7.46172 4.59007 7.83462C4.59007 8.30224 4.81029 8.74485 5.19439 9.04905C5.48821 9.28183 5.84805 9.41515 6.23597 9.44037C6.37252 10.4008 6.92788 11.258 7.77241 11.823V12.8255L2.87784 14.5733C2.87527 14.5742 2.8727 14.5751 2.87014 14.5761C2.78178 14.6096 0.707031 15.4208 0.707031 17.6527V25.5166C0.707031 26.0478 1.17626 26.48 1.75304 26.48H5.65777C5.88411 26.48 6.06761 26.311 6.06761 26.1025C6.06761 25.8941 5.88411 25.7251 5.65777 25.7251H4.77597V18.2914C4.77597 18.083 4.59248 17.914 4.36614 17.914C4.1398 17.914 3.95631 18.083 3.95631 18.2914V25.7252H1.75309C1.62834 25.7252 1.52681 25.6316 1.52681 25.5167V17.6527C1.52681 15.9531 3.0838 15.3131 3.17942 15.2754L6.12116 14.225L7.41361 16.6108C7.53727 16.839 7.78836 16.9767 8.05601 16.9767C8.31836 16.9767 8.4576 16.8635 8.64279 16.7424L8.97289 17.2001L7.74771 23.8673C7.747 23.871 7.7464 23.8748 7.7458 23.8786C7.71618 24.0761 7.78246 24.2791 7.92306 24.4217L9.20956 25.7252H7.5705C7.34416 25.7252 7.16066 25.8942 7.16066 26.1027C7.16066 26.3112 7.34416 26.4802 7.5705 26.4802H18.5194C19.0961 26.4802 19.5654 26.0479 19.5654 25.5167V21.9677C19.5653 21.7592 19.3818 21.5902 19.1554 21.5902ZM13.3806 13.9513L12.1758 16.1754C12.1458 16.1559 11.5073 15.738 10.7268 15.2275C11.0655 14.8424 10.6692 15.2929 12.215 13.5356L13.3806 13.9513ZM10.9581 16.305L10.6457 16.7382H9.62366L9.3112 16.305L10.1347 15.7663L10.9581 16.305ZM8.59202 12.9473V12.2409C9.08994 12.4258 9.62207 12.5115 10.1417 12.5115C10.6791 12.5115 11.206 12.406 11.6746 12.2173V12.9504L10.1347 14.7012L8.59202 12.9473ZM14.7744 7.83467C14.7743 8.08194 14.6581 8.31593 14.4553 8.47654C14.3213 8.58273 14.1594 8.65063 13.9821 8.6772V6.99229C14.4531 7.06275 14.7744 7.42261 14.7744 7.83467ZM6.20209 8.6772C5.7257 8.60599 5.40974 8.2432 5.40974 7.83462C5.40974 7.43107 5.77296 7.10261 6.20209 7.01126V8.6772ZM6.22411 6.24206C6.09356 6.25585 5.94395 6.28842 5.83242 6.32335V5.38931C5.83242 3.22595 7.74323 1.46595 10.092 1.46595C12.4408 1.46595 14.3516 3.22595 14.3516 5.38931V6.29743C14.2325 6.26406 14.1089 6.24201 13.9821 6.23164C13.9821 5.8674 13.9855 5.93766 12.6918 4.6566C12.4539 4.42115 12.0604 4.37183 11.7609 4.55206C10.333 5.41115 8.5912 5.84274 6.98411 5.73644C6.63159 5.71213 6.3105 5.92599 6.22411 6.24206ZM7.02181 8.97441V6.61934V6.49527C8.79093 6.5907 10.6457 6.10662 12.1441 5.22277C12.7375 5.80952 13.0588 6.11729 13.1624 6.23436C13.1624 6.53051 13.1624 8.63538 13.1624 8.97435C13.1624 10.5068 11.8058 11.7564 10.1418 11.7564C8.27328 11.7565 7.02181 10.4214 7.02181 8.97441ZM8.09366 16.1754L6.88881 13.9513L8.05235 13.5363L9.54093 15.2286C8.78393 15.7237 8.16235 16.1305 8.09366 16.1754ZM8.56388 23.9486L9.75016 17.4931H10.5191L11.7053 23.9486L10.1346 25.5402L8.56388 23.9486Z" fill="#0060B8"/>
</svg>
