<svg width="25" height="26" viewBox="0 0 25 26" fill="none" xmlns="http://www.w3.org/2000/svg">
<g clip-path="url(#clip0)">
<path d="M8.07766 4.33764L6.99072 2.44804C6.84072 2.18513 6.50705 2.09783 6.24832 2.24839C5.98852 2.39894 5.8994 2.73172 6.0494 2.99356L7.13634 4.88315C7.23636 5.05882 7.42004 5.15589 7.60698 5.15589C7.69935 5.15589 7.79285 5.1319 7.8787 5.08281C8.1385 4.93112 8.22766 4.5984 8.07766 4.33764Z" fill="#0060B8"/>
<path d="M18.9495 23.2275L17.8625 21.3379C17.7125 21.0761 17.3799 20.9866 17.1201 21.1383C16.8592 21.2888 16.7701 21.6227 16.9212 21.8834L18.0081 23.773C18.1082 23.9487 18.2918 24.0458 18.4788 24.0458C18.5712 24.0458 18.6646 24.0229 18.7505 23.9727C19.0114 23.8221 19.1005 23.4883 18.9495 23.2275Z" fill="#0060B8"/>
<path d="M4.30011 7.7305L2.41752 6.63952C2.15772 6.49116 1.82511 6.5784 1.67511 6.83917C1.52404 7.09994 1.61316 7.43378 1.87403 7.58434L3.75662 8.67532C3.84247 8.72549 3.93596 8.7484 4.02834 8.7484C4.21528 8.7484 4.39901 8.65022 4.49897 8.47567C4.64902 8.21491 4.55986 7.88106 4.30011 7.7305Z" fill="#0060B8"/>
<path d="M23.1236 18.6368L21.241 17.5458C20.9812 17.3974 20.6486 17.4847 20.4986 17.7454C20.3486 18.0062 20.4377 18.34 20.6975 18.4906L22.5801 19.5816C22.666 19.6317 22.7595 19.6547 22.8518 19.6547C23.0388 19.6547 23.2225 19.5565 23.3225 19.3819C23.4725 19.1212 23.3834 18.7873 23.1236 18.6368Z" fill="#0060B8"/>
<path d="M4.49902 17.7452C4.34902 17.4833 4.01535 17.396 3.75662 17.5455L1.87403 18.6365C1.61316 18.7871 1.52404 19.1209 1.67511 19.3817C1.77513 19.5562 1.95881 19.6544 2.14575 19.6544C2.23812 19.6544 2.33162 19.6315 2.41747 19.5813L4.30006 18.4903C4.56098 18.3398 4.65009 18.0059 4.49902 17.7452Z" fill="#0060B8"/>
<path d="M23.3232 6.83917C23.1732 6.57841 22.8396 6.48896 22.5808 6.63952L20.6982 7.7305C20.4374 7.88106 20.3483 8.21491 20.4993 8.47567C20.5993 8.65022 20.783 8.74841 20.97 8.74841C21.0623 8.74841 21.1558 8.72549 21.2417 8.67533L23.1243 7.58434C23.3852 7.43373 23.4743 7.09989 23.3232 6.83917Z" fill="#0060B8"/>
<path d="M7.87875 21.1383C7.61895 20.9888 7.28634 21.0761 7.13634 21.338L6.0494 23.2275C5.8994 23.4883 5.98852 23.8222 6.24832 23.9727C6.33417 24.0229 6.42766 24.0458 6.52004 24.0458C6.70698 24.0458 6.89071 23.9487 6.99067 23.7731L8.07761 21.8835C8.22766 21.6227 8.1385 21.2889 7.87875 21.1383Z" fill="#0060B8"/>
<path d="M18.7498 2.24865C18.49 2.09917 18.1574 2.18646 18.0074 2.4483L16.9205 4.3379C16.7705 4.59866 16.8596 4.93251 17.1194 5.08307C17.2053 5.13324 17.2988 5.15615 17.3911 5.15615C17.5781 5.15615 17.7618 5.05796 17.8618 4.88342L18.9487 2.99382C19.0988 2.73305 19.0096 2.39921 18.7498 2.24865Z" fill="#0060B8"/>
<path d="M12.5005 0.567383C12.2005 0.567383 11.957 0.811705 11.957 1.11272V3.29404C11.957 3.59506 12.2005 3.83938 12.5005 3.83938C12.8005 3.83938 13.044 3.59501 13.044 3.29399V1.11272C13.044 0.811705 12.8005 0.567383 12.5005 0.567383Z" fill="#0060B8"/>
<path d="M2.71737 12.5645H0.543495C0.243495 12.5645 0 12.8088 0 13.11C0 13.4112 0.243495 13.6556 0.543495 13.6556H2.71742C3.01737 13.6556 3.26087 13.4112 3.26087 13.11C3.26087 12.8088 3.01737 12.5645 2.71737 12.5645Z" fill="#0060B8"/>
<path d="M24.4557 12.5645H22.2818C21.9818 12.5645 21.7383 12.8089 21.7383 13.1101C21.7383 13.4112 21.9818 13.6556 22.2818 13.6556H24.4557C24.7557 13.6556 24.9992 13.4112 24.9992 13.11C24.9992 12.8088 24.7557 12.5645 24.4557 12.5645Z" fill="#0060B8"/>
<path d="M12.5005 22.3799C12.2005 22.3799 11.957 22.6242 11.957 22.9252V25.1065C11.957 25.4075 12.2005 25.6518 12.5005 25.6518C12.8005 25.6518 13.044 25.4075 13.044 25.1065V22.9252C13.044 22.6242 12.8005 22.3799 12.5005 22.3799Z" fill="#0060B8"/>
<path d="M12.5005 0.567383C12.2005 0.567383 11.957 0.811705 11.957 1.11272V25.107C11.957 25.408 12.2005 25.6523 12.5005 25.6523C19.3929 25.6523 25.0005 20.0257 25.0005 13.1099C25.0005 6.19411 19.3929 0.567383 12.5005 0.567383ZM13.044 24.5497V1.6711C19.0864 1.95576 23.9136 6.97928 23.9136 13.1109C23.9136 19.2425 19.0864 24.2639 13.044 24.5497Z" fill="#0060B8"/>
</g>
<defs>
<clipPath id="clip0">
<rect width="25" height="25.085" fill="white" transform="translate(0 0.567383)"/>
</clipPath>
</defs>
</svg>
