<svg width="27" height="26" viewBox="0 0 27 26" fill="none" xmlns="http://www.w3.org/2000/svg">
<g clip-path="url(#clip0)">
<path d="M23.6651 1.43555H7.00179C5.55566 1.43555 4.3791 2.6011 4.3791 4.0291L4.27172 18.702H1.0198C0.789336 18.702 0.613281 18.9057 0.613281 19.1362V21.1555C0.613281 23.0459 2.12605 24.5919 3.9518 24.6766V24.7009H17.984V24.6736C18.0884 24.6779 18.1515 24.7009 18.2233 24.7009H18.2332C20.1804 24.6895 21.7501 23.1023 21.7399 21.1551V8.32125H25.976C26.2065 8.32125 26.3825 8.11259 26.3825 7.88234V4.17724C26.3852 2.6714 25.1709 1.44635 23.6651 1.43555V1.43555ZM4.13438 23.8663H4.13153C2.64708 23.8663 1.44791 22.6394 1.44791 21.1551V19.5366H14.6977V21.1482C14.6944 22.0876 15.0655 22.9894 15.7287 23.6545C15.7992 23.7254 15.873 23.7619 15.9484 23.8663H4.13438ZM20.9052 21.1547C20.9052 22.6394 19.7177 23.8663 18.2326 23.8663H18.2241C16.7317 23.8555 15.5288 22.6408 15.5323 21.1484V19.1362C15.5335 18.9025 15.3487 18.7101 15.115 18.702H5.10635L5.21374 4.03195C5.21374 3.06141 6.01576 2.27018 7.00179 2.27018H21.6948C21.2192 2.79182 20.9052 3.45182 20.9052 4.18844V21.1547ZM25.5479 4.18457V7.48662H21.7399V4.18763C21.7399 3.14312 22.6087 2.27018 23.6528 2.27018H23.6645C24.7112 2.28057 25.5528 3.13456 25.5479 4.18152V4.18457Z" fill="#0060B8"/>
<path d="M10.4139 11.7077L12.5655 13.1787C12.7059 13.2755 12.8915 13.2755 13.0319 13.1787L15.177 11.7081C15.9222 11.1997 16.4726 10.1369 16.4726 9.23561V6.25938C16.477 6.10207 16.3902 5.95617 16.25 5.88465L12.9741 4.27326C12.8591 4.21621 12.7243 4.21621 12.6093 4.27326L9.33948 5.88017C9.19928 5.95169 9.11268 6.09759 9.11737 6.2549V9.23561C9.11737 10.1369 9.66897 11.1997 10.4139 11.7077ZM9.952 6.51531L12.795 5.11258L15.6379 6.51918V9.23561C15.6379 9.86423 15.2259 10.6638 14.7061 11.0182L12.7901 12.3286L10.8816 11.0184C10.3618 10.6636 9.952 9.86423 9.952 9.23561V6.51531Z" fill="#0060B8"/>
<path d="M12.0863 9.86519C12.1641 9.94466 12.2705 9.9897 12.3817 9.99031H12.3828C12.4936 9.9899 12.5998 9.94548 12.6778 9.86682L14.3379 8.20612C14.5011 8.04311 14.5011 7.77862 14.3381 7.6156C14.1753 7.45239 13.9108 7.45239 13.7478 7.6154L12.3842 8.97881L11.8391 8.42843C11.6767 8.2646 11.4124 8.26338 11.2486 8.42578C11.0848 8.58818 11.0837 8.85247 11.2459 9.0163L12.0863 9.86519Z" fill="#0060B8"/>
<path d="M17.9837 14.3721H7.9681C7.73764 14.3721 7.55078 14.5589 7.55078 14.7894C7.55078 15.0198 7.73764 15.2067 7.9681 15.2067H17.9837C18.2141 15.2067 18.401 15.0198 18.401 14.7894C18.401 14.5589 18.2141 14.3721 17.9837 14.3721Z" fill="#0060B8"/>
<path d="M17.9837 16.3027H7.9681C7.73764 16.3027 7.55078 16.4896 7.55078 16.7201C7.55078 16.9505 7.73764 17.1374 7.9681 17.1374H17.9837C18.2141 17.1374 18.401 16.9505 18.401 16.7201C18.401 16.4896 18.2141 16.3027 17.9837 16.3027Z" fill="#0060B8"/>
</g>
<defs>
<clipPath id="clip0">
<rect width="25.7692" height="25.7692" fill="white" transform="translate(0.613281 0.183594)"/>
</clipPath>
</defs>
</svg>
