<svg width="26" height="26" viewBox="0 0 26 26" fill="none" xmlns="http://www.w3.org/2000/svg">
<g clip-path="url(#clip0)">
<path d="M25.8152 6.85493C25.7291 6.53453 25.5188 6.26139 25.2312 6.0958C24.9434 5.92939 24.6013 5.88437 24.2802 5.97053C23.9596 6.05689 23.6865 6.26689 23.5209 6.55449L23.3123 6.91746C23.1142 6.8036 22.861 6.87061 22.7451 7.06778L21.6855 8.87384L21.3226 8.66527C21.2264 8.60967 21.1119 8.59459 21.0048 8.62352C20.8975 8.65264 20.8062 8.72312 20.751 8.81966C20.638 9.01907 20.7068 9.27245 20.9054 9.38692L21.2684 9.5955L17.7226 15.74L16.8466 18.0804L16.4294 18.8603C16.1852 19.2852 16.2113 19.8133 16.4963 20.2119L15.5577 21.3631L15.2949 20.7042C15.1764 20.4105 14.902 20.2093 14.5865 20.1846C14.2708 20.1598 13.9683 20.3158 13.8056 20.5873L13.6555 20.8417L13.5137 19.1731C13.4811 18.7784 13.1754 18.4611 12.7823 18.4134C12.389 18.3659 12.0166 18.6016 11.891 18.9772L10.8648 22.0557C10.7931 22.2734 10.9104 22.5081 11.1276 22.5814C11.1683 22.6003 11.2121 22.6117 11.2569 22.6146C11.4361 22.6152 11.5958 22.5009 11.6533 22.331L12.6751 19.2526L12.8212 20.946C12.8513 21.3073 13.111 21.6078 13.4642 21.6896C13.8174 21.7715 14.1828 21.6159 14.3688 21.3049L14.5232 21.0503L14.7818 21.7053C14.8916 21.9813 15.1399 22.1783 15.4338 22.2221C15.7278 22.2659 16.0227 22.15 16.2085 21.918L17.1804 20.6875C17.288 20.7156 17.3988 20.7297 17.51 20.7293C17.9571 20.7327 18.3722 20.4973 18.5987 20.1117L19.0158 19.4151L20.6052 17.4838L24.1884 11.2641L24.5513 11.4726C24.6481 11.5281 24.7186 11.6195 24.7473 11.7273C24.7762 11.8342 24.7611 11.9483 24.7057 12.0442L23.0372 14.9351C22.9742 15.03 22.9528 15.1465 22.9781 15.2577C23.0034 15.3687 23.0728 15.4647 23.1706 15.5231C23.2667 15.5789 23.3812 15.594 23.4883 15.5651C23.5957 15.5359 23.6869 15.4655 23.7421 15.3689L25.4107 12.478C25.5771 12.1902 25.6221 11.848 25.5358 11.527C25.4494 11.2064 25.2394 10.9333 24.9518 10.7677L24.5888 10.5591L25.6317 8.75286C25.7455 8.55467 25.6785 8.3017 25.4816 8.1856L25.6901 7.82263C25.861 7.53034 25.9063 7.18123 25.8152 6.85493ZM24.2426 6.97164C24.2978 6.87509 24.3894 6.80441 24.4972 6.77569C24.6043 6.74922 24.7176 6.76408 24.8141 6.81745C24.9109 6.87265 24.9813 6.96431 25.0103 7.07185C25.0367 7.17899 25.0219 7.29224 24.9685 7.38878L24.7599 7.75175L24.034 7.3346L24.2426 6.97164ZM18.5569 18.6185L18.3484 18.4975L17.731 18.1386L18.3233 16.5535L19.6373 17.3127L18.5569 18.6185ZM17.3055 19.8239C17.1293 19.7011 17.0751 19.4648 17.1804 19.2774L17.389 18.9147L18.1147 19.3318L17.9062 19.6905C17.8477 19.7919 17.7495 19.864 17.6353 19.8895C17.521 19.9147 17.4014 19.8911 17.3055 19.8239ZM20.1129 16.6287L18.6696 15.7944L22.0067 10.0126L23.45 10.8469L20.1129 16.6287ZM23.8672 10.1253L22.4239 9.29099L23.2582 7.84768L24.7015 8.68197L23.8672 10.1253Z" fill="#0060B8"/>
<path d="M7.41242 19.6149L5.93591 21.0876L5.05152 20.2032C4.88877 20.0415 4.62602 20.0415 4.46328 20.2032C4.38425 20.2816 4.33984 20.3881 4.33984 20.4993C4.33984 20.6106 4.38425 20.7173 4.46328 20.7955L5.34767 21.6799C5.5041 21.8351 5.71553 21.9221 5.93591 21.9219C6.15752 21.9231 6.37078 21.8361 6.52823 21.6799L8.00066 20.2032C8.14242 20.0376 8.13285 19.7909 7.97886 19.6369C7.82468 19.4828 7.57801 19.4732 7.41242 19.6149Z" fill="#0060B8"/>
<path d="M2.49609 20.738C2.49609 22.6964 4.08361 24.2837 6.04183 24.2837C8.00005 24.2837 9.58756 22.6964 9.58756 20.738C9.58756 20.5076 9.40078 20.3209 9.17042 20.3209C8.94005 20.3209 8.75327 20.5076 8.75327 20.738C8.75327 22.2355 7.53931 23.4494 6.04183 23.4494C4.54434 23.4494 3.33038 22.2355 3.33038 20.738C3.33038 19.2405 4.54434 18.0266 6.04183 18.0266C6.62885 18.0249 7.20018 18.2154 7.66865 18.569C7.85299 18.7073 8.11452 18.6698 8.25262 18.4855C8.39092 18.3011 8.35364 18.0398 8.16931 17.9015C7.09487 17.0957 5.65727 16.9662 4.45615 17.5666C3.25482 18.1673 2.49609 19.3951 2.49609 20.738Z" fill="#0060B8"/>
<path d="M15.845 4.26007C16.0753 4.26007 16.2621 4.0735 16.2621 3.84293C16.2621 3.61256 16.0753 3.42578 15.845 3.42578H4.99918C4.76881 3.42578 4.58203 3.61256 4.58203 3.84293V5.51151C4.58203 5.74208 4.76881 5.92865 4.99918 5.92865H15.845C16.0753 5.92865 16.2621 5.74208 16.2621 5.51151C16.2621 5.28114 16.0753 5.09436 15.845 5.09436H5.41632V4.26007H15.845Z" fill="#0060B8"/>
<path d="M6.25308 6.76367C6.02272 6.76367 5.83594 6.95045 5.83594 7.18082C5.83594 7.41139 6.02272 7.59796 6.25308 7.59796H14.596C14.8263 7.59796 15.0131 7.41139 15.0131 7.18082C15.0131 6.95045 14.8263 6.76367 14.596 6.76367H6.25308Z" fill="#0060B8"/>
<path d="M17.0982 9.68359H7.92105C7.69068 9.68359 7.50391 9.87037 7.50391 10.1007C7.50391 10.3313 7.69068 10.5179 7.92105 10.5179H17.0982C17.3286 10.5179 17.5154 10.3313 17.5154 10.1007C17.5154 9.87037 17.3286 9.68359 17.0982 9.68359Z" fill="#0060B8"/>
<path d="M12.9272 12.6037C12.9272 12.3733 12.7404 12.1865 12.51 12.1865H4.16715C3.93678 12.1865 3.75 12.3733 3.75 12.6037C3.75 12.8342 3.93678 13.0208 4.16715 13.0208H12.51C12.7404 13.0208 12.9272 12.8342 12.9272 12.6037Z" fill="#0060B8"/>
<path d="M17.0989 12.1865H14.1789C13.9485 12.1865 13.7617 12.3733 13.7617 12.6037C13.7617 12.8342 13.9485 13.0208 14.1789 13.0208H17.0989C17.3292 13.0208 17.516 12.8342 17.516 12.6037C17.516 12.3733 17.3292 12.1865 17.0989 12.1865Z" fill="#0060B8"/>
<path d="M8.3386 15.1058C8.56896 15.1058 8.75574 14.9192 8.75574 14.6886C8.75574 14.4583 8.56896 14.2715 8.3386 14.2715H4.16715C3.93678 14.2715 3.75 14.4583 3.75 14.6886C3.75 14.9192 3.93678 15.1058 4.16715 15.1058H8.3386Z" fill="#0060B8"/>
<path d="M10.0031 15.1058H12.9231C13.1535 15.1058 13.3402 14.9192 13.3402 14.6886C13.3402 14.4583 13.1535 14.2715 12.9231 14.2715H10.0031C9.77272 14.2715 9.58594 14.4583 9.58594 14.6886C9.58594 14.9192 9.77272 15.1058 10.0031 15.1058Z" fill="#0060B8"/>
<path d="M19.5997 20.1125C19.3693 20.1125 19.1825 20.2993 19.1825 20.5296V24.7011C19.1825 24.9317 18.9957 25.1182 18.7654 25.1182H2.07956C1.84919 25.1182 1.66242 24.9317 1.66242 24.7011V2.17526C1.66242 1.9449 1.84919 1.75812 2.07956 1.75812H18.7654C18.9957 1.75812 19.1825 1.9449 19.1825 2.17526V10.0094C19.1825 10.2397 19.3693 10.4265 19.5997 10.4265C19.83 10.4265 20.0168 10.2397 20.0168 10.0094V2.17526C20.0168 1.48416 19.4565 0.923828 18.7654 0.923828H2.07956C1.38846 0.923828 0.828125 1.48416 0.828125 2.17526V24.7011C0.828125 25.3924 1.38846 25.9525 2.07956 25.9525H18.7654C19.4565 25.9525 20.0168 25.3924 20.0168 24.7011V20.5296C20.0168 20.2993 19.83 20.1125 19.5997 20.1125Z" fill="#0060B8"/>
</g>
<defs>
<clipPath id="clip0">
<rect width="25.033" height="25.033" fill="white" transform="translate(0.828125 0.918945)"/>
</clipPath>
</defs>
</svg>
