<svg width="26" height="26" viewBox="0 0 26 26" fill="none" xmlns="http://www.w3.org/2000/svg">
<g clip-path="url(#clip0)">
<path d="M13.1298 0.567383C6.22818 0.567383 0.613281 6.18228 0.613281 13.0839C0.613281 19.9855 6.22818 25.6003 13.1298 25.6003C20.0314 25.6003 25.6462 19.9855 25.6462 13.0839C25.6462 6.18228 20.0314 0.567383 13.1298 0.567383ZM13.1298 24.7659C6.68836 24.7659 1.44771 19.5253 1.44771 13.0839C1.44771 6.64247 6.68836 1.40182 13.1298 1.40182C19.5712 1.40182 24.8118 6.64247 24.8118 13.0839C24.8118 19.5253 19.5712 24.7659 13.1298 24.7659Z" fill="#0060B8"/>
<path d="M13.5488 11.424V7.19261C13.5488 6.96189 13.3619 6.77539 13.1316 6.77539C12.9013 6.77539 12.7144 6.96189 12.7144 7.19261V11.424C12.1307 11.5759 11.6738 12.0327 11.522 12.6164H8.54222C8.31191 12.6164 8.125 12.8029 8.125 13.0336C8.125 13.2644 8.31191 13.4508 8.54222 13.4508H11.522C11.7085 14.1685 12.3564 14.7025 13.1316 14.7025C14.052 14.7025 14.8005 13.954 14.8005 13.0336C14.8005 12.258 14.2664 11.6105 13.5488 11.424ZM13.1316 13.8681C12.6714 13.8681 12.2972 13.4938 12.2972 13.0336C12.2972 12.5734 12.6714 12.1992 13.1316 12.1992C13.5918 12.1992 13.966 12.5734 13.966 13.0336C13.966 13.4938 13.5918 13.8681 13.1316 13.8681Z" fill="#0060B8"/>
<path d="M13.1282 4.68915C13.3585 4.68915 13.5454 4.50265 13.5454 4.27193V3.85472C13.5454 3.624 13.3585 3.4375 13.1282 3.4375C12.8979 3.4375 12.7109 3.624 12.7109 3.85472V4.27193C12.7109 4.50265 12.8979 4.68915 13.1282 4.68915Z" fill="#0060B8"/>
<path d="M13.1282 21.3779C12.8979 21.3779 12.7109 21.5644 12.7109 21.7951V22.2124C12.7109 22.4431 12.8979 22.6296 13.1282 22.6296C13.3585 22.6296 13.5454 22.4431 13.5454 22.2124V21.7951C13.5454 21.5644 13.3585 21.3779 13.1282 21.3779Z" fill="#0060B8"/>
<path d="M22.311 12.6162H21.8938C21.6635 12.6162 21.4766 12.8027 21.4766 13.0334C21.4766 13.2641 21.6635 13.4506 21.8938 13.4506H22.311C22.5413 13.4506 22.7282 13.2641 22.7282 13.0334C22.7282 12.8027 22.5413 12.6162 22.311 12.6162Z" fill="#0060B8"/>
<path d="M4.36959 12.6162H3.95237C3.72207 12.6162 3.53516 12.8027 3.53516 13.0334C3.53516 13.2641 3.72207 13.4506 3.95237 13.4506H4.36959C4.59989 13.4506 4.7868 13.2641 4.7868 13.0334C4.7868 12.8027 4.59989 12.6162 4.36959 12.6162Z" fill="#0060B8"/>
<path d="M19.3236 6.24817L19.0286 6.54314C18.8655 6.70627 18.8655 6.96995 19.0286 7.13308C19.11 7.21444 19.2168 7.25533 19.3236 7.25533C19.4304 7.25533 19.5372 7.21444 19.6185 7.13308L19.9135 6.83811C20.0766 6.67498 20.0766 6.4113 19.9135 6.24817C19.7504 6.08504 19.4867 6.08545 19.3236 6.24817Z" fill="#0060B8"/>
<path d="M6.63998 18.9337L6.34501 19.2287C6.18187 19.3918 6.18187 19.6555 6.34501 19.8186C6.42636 19.9 6.53317 19.9409 6.63998 19.9409C6.74678 19.9409 6.85359 19.9 6.93495 19.8186L7.22992 19.5237C7.39305 19.3605 7.39305 19.0968 7.22992 18.9337C7.06679 18.7706 6.80269 18.771 6.63998 18.9337Z" fill="#0060B8"/>
<path d="M19.6185 18.9339C19.4554 18.7707 19.1917 18.7707 19.0286 18.9339C18.8655 19.097 18.8655 19.3607 19.0286 19.5238L19.3236 19.8188C19.4049 19.9001 19.5117 19.941 19.6185 19.941C19.7254 19.941 19.8322 19.9001 19.9135 19.8188C20.0766 19.6557 20.0766 19.392 19.9135 19.2288L19.6185 18.9339Z" fill="#0060B8"/>
<path d="M6.93495 6.24833C6.77182 6.08519 6.50814 6.08519 6.34501 6.24833C6.18187 6.41146 6.18187 6.67514 6.34501 6.83827L6.63998 7.13324C6.72133 7.2146 6.82814 7.25548 6.93495 7.25548C7.04176 7.25548 7.14856 7.2146 7.22992 7.13324C7.39305 6.97011 7.39305 6.70643 7.22992 6.5433L6.93495 6.24833Z" fill="#0060B8"/>
</g>
<defs>
<clipPath id="clip0">
<rect width="25.033" height="25.033" fill="white" transform="translate(0.613281 0.567383)"/>
</clipPath>
</defs>
</svg>
