<svg width="12" height="12" viewBox="0 0 12 12" fill="none" xmlns="http://www.w3.org/2000/svg">
<path d="M8.79372 7.35861C8.56835 7.12082 8.29651 6.99369 8.0084 6.99369C7.72262 6.99369 7.44846 7.11847 7.2138 7.35625L6.4796 8.09787C6.41919 8.06491 6.35878 8.0343 6.30069 8.00369C6.21705 7.96132 6.13806 7.92129 6.07068 7.87891C5.38295 7.4363 4.75795 6.85949 4.15851 6.11317C3.86808 5.74119 3.67291 5.42806 3.53119 5.11023C3.72171 4.93365 3.89829 4.75002 4.07022 4.57344C4.13527 4.50752 4.20033 4.43925 4.26539 4.37332C4.7533 3.87892 4.7533 3.23854 4.26539 2.74413L3.63109 2.1014C3.55907 2.02842 3.48472 1.95308 3.41502 1.87774C3.27561 1.73177 3.12924 1.5811 2.97821 1.43984C2.75284 1.21382 2.48333 1.09375 2.19987 1.09375C1.91641 1.09375 1.64225 1.21382 1.40991 1.43984C1.40759 1.44219 1.40759 1.44219 1.40526 1.44454L0.615304 2.25208C0.317907 2.55343 0.148298 2.92071 0.111123 3.34684C0.0553611 4.0343 0.255175 4.67468 0.40852 5.09375C0.784913 6.12259 1.34718 7.07609 2.18593 8.09787C3.20359 9.32918 4.42802 10.3015 5.82672 10.9866C6.3611 11.2432 7.07439 11.547 7.87132 11.5987C7.92011 11.6011 7.97123 11.6035 8.0177 11.6035C8.55441 11.6035 9.00515 11.408 9.35831 11.0196C9.36063 11.0149 9.36528 11.0125 9.3676 11.0078C9.48842 10.8595 9.62782 10.7253 9.7742 10.5817C9.8741 10.4852 9.97633 10.3839 10.0762 10.278C10.3063 10.0355 10.4271 9.75296 10.4271 9.46338C10.4271 9.17144 10.3039 8.89127 10.0693 8.65584L8.79372 7.35861ZM9.6255 9.83771C9.62317 9.83771 9.62317 9.84007 9.6255 9.83771C9.53489 9.93659 9.44195 10.0261 9.34204 10.1249C9.19102 10.2709 9.03767 10.4239 8.89362 10.5958C8.65896 10.8501 8.38247 10.9701 8.02002 10.9701C7.98517 10.9701 7.94799 10.9701 7.91314 10.9678C7.22309 10.9231 6.58183 10.65 6.10088 10.4169C4.78583 9.77179 3.63109 8.85596 2.67152 7.69528C1.87924 6.72765 1.3495 5.83301 0.998667 4.87244C0.782589 4.28621 0.703593 3.82948 0.738444 3.39863C0.761679 3.12318 0.866232 2.89481 1.05908 2.6994L1.85136 1.89657C1.96521 1.78828 2.08602 1.72942 2.20452 1.72942C2.35089 1.72942 2.46939 1.81888 2.54374 1.89422C2.54606 1.89657 2.54838 1.89893 2.55071 1.90128C2.69243 2.03548 2.82719 2.17439 2.96892 2.32271C3.04095 2.39805 3.1153 2.47338 3.18964 2.55108L3.82394 3.19381C4.07022 3.44337 4.07022 3.67409 3.82394 3.92365C3.75656 3.99192 3.6915 4.0602 3.62412 4.12612C3.42896 4.32859 3.24308 4.51694 3.04095 4.70058C3.0363 4.70528 3.03165 4.70764 3.02933 4.71235C2.82952 4.91482 2.86669 5.11258 2.90851 5.24678C2.91084 5.25384 2.91316 5.2609 2.91548 5.26797C3.08044 5.67291 3.31279 6.05431 3.66594 6.5087L3.66827 6.51105C4.30953 7.31152 4.98564 7.93542 5.73146 8.41335C5.82672 8.47456 5.9243 8.524 6.01724 8.57109C6.10088 8.61346 6.17988 8.65349 6.24726 8.69587C6.25655 8.70057 6.26584 8.70764 6.27514 8.71235C6.35413 8.75237 6.42848 8.7712 6.50515 8.7712C6.698 8.7712 6.81882 8.64878 6.85831 8.60876L7.65292 7.80358C7.73192 7.72353 7.85738 7.627 8.00376 7.627C8.14781 7.627 8.2663 7.71882 8.33833 7.79887C8.34065 7.80122 8.34065 7.80122 8.34297 7.80358L9.62317 9.10081C9.86249 9.34095 9.86249 9.58815 9.6255 9.83771Z" fill="#0060B8"/>
<path d="M6.04334 3.10316C6.65207 3.20675 7.20505 3.49869 7.6465 3.94601C8.08794 4.39333 8.37372 4.95366 8.47828 5.57049C8.50383 5.72588 8.63627 5.83418 8.78729 5.83418C8.80588 5.83418 8.82214 5.83182 8.84073 5.82947C9.01266 5.80122 9.12651 5.63641 9.09863 5.46219C8.97316 4.71587 8.62465 4.03547 8.09259 3.49633C7.56053 2.95719 6.88906 2.60404 6.15254 2.47691C5.98061 2.44866 5.82029 2.56402 5.79009 2.73589C5.75988 2.90775 5.87141 3.07491 6.04334 3.10316Z" fill="#0060B8"/>
<path d="M11.0906 5.36989C10.8838 4.14094 10.3123 3.02263 9.43402 2.1327C8.55577 1.24276 7.45215 0.663599 6.23933 0.454064C6.06972 0.423458 5.9094 0.541174 5.8792 0.71304C5.85132 0.88726 5.96516 1.04971 6.1371 1.08031C7.21981 1.26631 8.20726 1.78661 8.99257 2.58002C9.77788 3.37578 10.289 4.37637 10.4726 5.47348C10.4981 5.62887 10.6306 5.73717 10.7816 5.73717C10.8002 5.73717 10.8164 5.73481 10.835 5.73246C11.0046 5.70656 11.1208 5.54176 11.0906 5.36989Z" fill="#0060B8"/>
</svg>
