<svg width="14" height="15" viewBox="0 0 14 15" fill="none" xmlns="http://www.w3.org/2000/svg">
<path d="M11.066 8.67521C10.7793 8.37678 10.4336 8.21722 10.0672 8.21722C9.70379 8.21722 9.35512 8.37382 9.05669 8.67226L8.12297 9.60302C8.04615 9.56165 7.96932 9.52324 7.89545 9.48483C7.78908 9.43164 7.68862 9.38141 7.60293 9.32822C6.72831 8.77272 5.93347 8.0488 5.17113 7.11213C4.80178 6.64527 4.55358 6.25228 4.37334 5.85338C4.61563 5.63177 4.8402 5.4013 5.05885 5.17969C5.14158 5.09695 5.22432 5.01127 5.30705 4.92853C5.92756 4.30802 5.92756 3.50432 5.30705 2.88381L4.50039 2.07715C4.40879 1.98555 4.31424 1.891 4.2256 1.79645C4.04831 1.61325 3.86216 1.42414 3.6701 1.24686C3.38348 0.963195 3.04072 0.8125 2.68024 0.8125C2.31975 0.8125 1.97109 0.963195 1.67561 1.24686C1.67265 1.24981 1.67265 1.24981 1.6697 1.25276L0.665068 2.26626C0.286854 2.64447 0.071154 3.10542 0.0238773 3.64024C-0.0470378 4.50304 0.207075 5.30675 0.402091 5.8327C0.880768 7.12395 1.59583 8.32064 2.66251 9.60302C3.95671 11.1484 5.51389 12.3687 7.29268 13.2286C7.97228 13.5506 8.8794 13.9318 9.8929 13.9968C9.95495 13.9998 10.02 14.0027 10.079 14.0027C10.7616 14.0027 11.3348 13.7575 11.784 13.2699C11.7869 13.264 11.7928 13.2611 11.7958 13.2551C11.9494 13.069 12.1267 12.9006 12.3129 12.7203C12.4399 12.5992 12.5699 12.4721 12.697 12.3392C12.9895 12.0348 13.1432 11.6802 13.1432 11.3168C13.1432 10.9504 12.9866 10.5988 12.6881 10.3033L11.066 8.67521ZM12.1238 11.7866C12.1208 11.7866 12.1208 11.7896 12.1238 11.7866C12.0085 11.9107 11.8903 12.023 11.7633 12.1471C11.5712 12.3303 11.3762 12.5224 11.193 12.7381C10.8946 13.0572 10.543 13.2079 10.082 13.2079C10.0377 13.2079 9.99041 13.2079 9.94608 13.2049C9.06851 13.1488 8.25299 12.806 7.64134 12.5135C5.96893 11.7039 4.50039 10.5545 3.28006 9.09775C2.27248 7.88333 1.59878 6.76051 1.15261 5.55495C0.877813 4.8192 0.77735 4.24597 0.821672 3.70525C0.85122 3.35953 0.984186 3.07292 1.22943 2.82767L2.23702 1.82009C2.3818 1.68417 2.53545 1.6103 2.68615 1.6103C2.8723 1.6103 3.023 1.72258 3.11755 1.81713C3.1205 1.82009 3.12346 1.82304 3.12641 1.826C3.30666 1.99442 3.47803 2.16875 3.65828 2.3549C3.74988 2.44946 3.84443 2.54401 3.93898 2.64152L4.74564 3.44818C5.05885 3.76139 5.05885 4.05096 4.74564 4.36417C4.65995 4.44985 4.57722 4.53554 4.49153 4.61828C4.24333 4.87239 4.00694 5.10877 3.74988 5.33925C3.74397 5.34516 3.73806 5.34811 3.7351 5.35402C3.48099 5.60813 3.52827 5.85634 3.58145 6.02476C3.58441 6.03363 3.58736 6.04249 3.59032 6.05135C3.80011 6.55958 4.09559 7.03826 4.54472 7.60853L4.54767 7.61149C5.36319 8.61612 6.22304 9.39914 7.17153 9.99896C7.29268 10.0758 7.41678 10.1378 7.53497 10.1969C7.64134 10.2501 7.7418 10.3004 7.82749 10.3535C7.83931 10.3594 7.85113 10.3683 7.86295 10.3742C7.96341 10.4245 8.05797 10.4481 8.15548 10.4481C8.40072 10.4481 8.55437 10.2944 8.60461 10.2442L9.61515 9.23367C9.71561 9.13321 9.87517 9.01206 10.0613 9.01206C10.2445 9.01206 10.3952 9.1273 10.4868 9.22776C10.4898 9.23072 10.4898 9.23072 10.4927 9.23367L12.1208 10.8618C12.4252 11.1632 12.4252 11.4734 12.1238 11.7866Z" fill="#C2C2C2"/>
<path d="M7.56662 3.33233C8.34078 3.46234 9.04402 3.82874 9.60544 4.39015C10.1668 4.95156 10.5303 5.6548 10.6633 6.42896C10.6958 6.62397 10.8642 6.7599 11.0562 6.7599C11.0799 6.7599 11.1006 6.75694 11.1242 6.75399C11.3429 6.71853 11.4876 6.51169 11.4522 6.29304C11.2926 5.35637 10.8494 4.50243 10.1728 3.82578C9.49611 3.14913 8.64217 2.70592 7.7055 2.54636C7.48685 2.5109 7.28296 2.65568 7.24455 2.87138C7.20614 3.08708 7.34797 3.29687 7.56662 3.33233Z" fill="#C2C2C2"/>
<path d="M13.9845 6.17765C13.7215 4.63525 12.9947 3.23172 11.8777 2.1148C10.7608 0.997891 9.3573 0.271011 7.81489 0.00803453C7.59919 -0.0303778 7.39531 0.117362 7.3569 0.333062C7.32144 0.551717 7.46623 0.755598 7.68488 0.79401C9.06182 1.02744 10.3176 1.68045 11.3163 2.67622C12.315 3.67494 12.9651 4.93073 13.1985 6.30766C13.231 6.50268 13.3995 6.6386 13.5915 6.6386C13.6152 6.6386 13.6358 6.63564 13.6595 6.63269C13.8752 6.60019 14.0229 6.39335 13.9845 6.17765Z" fill="#C2C2C2"/>
</svg>
