<svg width="28" height="28" viewBox="0 0 28 28" fill="none" xmlns="http://www.w3.org/2000/svg">
<g clip-path="url(#clip0)">
<path fill-rule="evenodd" clip-rule="evenodd" d="M21.2923 12.0665C27.9526 9.96013 30.854 21.401 24.3455 22.2418C21.6989 22.5837 18.8381 22.6108 17.454 19.5852C15.9157 16.2231 17.7801 13.177 21.2923 12.0665C23.6868 11.3094 20.1184 12.4377 21.2923 12.0665ZM26.0895 17.7371C26.1724 15.2928 25.4888 13.19 22.5177 13.6342C20.1091 13.9943 18.1804 15.8826 19.0284 18.2275C20.0662 21.0976 25.9576 21.6443 26.0895 17.7371Z" fill="white"/>
<path fill-rule="evenodd" clip-rule="evenodd" d="M12.2873 5.99157C12.0029 5.05644 11.541 4.15695 11.5275 3.16416C11.5071 1.75252 13.0452 2.59355 13.3552 3.31405C14.1964 5.27254 14.3375 8.11837 16.5943 9.25172C17.9245 9.9203 20.0661 9.06151 20.727 7.9534C21.7894 6.17377 19.8271 3.22662 19.1194 1.50092C18.7578 0.618108 19.5857 -0.119879 20.5637 0.0162657C21.6709 0.17043 21.9502 1.96848 22.2304 2.78001C22.9263 4.79283 23.563 7.75612 21.8667 9.49491C20.6261 10.7657 18.381 11.5367 16.5721 11.1523C14.0462 10.6157 12.9961 8.04576 12.2873 5.99157C12.0037 5.05844 12.4535 6.47422 12.2873 5.99157Z" fill="white"/>
<path fill-rule="evenodd" clip-rule="evenodd" d="M8.25742 18.3715C7.31904 18.7814 6.12637 19.1982 5.69415 18.2443C5.14819 17.0395 7.77976 16.8583 7.24933 16.1132C6.58385 15.1793 4.02128 16.2064 4.01564 18.3723C4.00717 21.6381 7.98028 20.334 9.515 19.6643C10.6976 19.1479 12.3808 19.1263 13.5406 20.3312C14.6619 21.4956 14.1773 23.2189 12.6385 24.3225C11.3456 25.2503 7.46071 25.7435 6.86142 26.2096C5.61259 27.1807 7.2379 28.3629 8.60935 27.8947C12.9676 26.407 15.5239 25.2687 15.8471 22.5966C16.0793 20.6783 15.3374 18.2658 12.7903 17.7924C11.2082 17.4985 10.0189 17.602 8.25742 18.3715Z" fill="white"/>
<path fill-rule="evenodd" clip-rule="evenodd" d="M14.6492 16.2099C12.4981 16.8724 11.92 13.7986 13.8481 13.1509C15.7421 12.5155 17.0485 15.3385 14.6492 16.2099Z" fill="white"/>
<path fill-rule="evenodd" clip-rule="evenodd" d="M0.443233 7.95194C-0.276713 9.52562 -0.0365425 10.9373 0.571785 12.4948C0.895634 13.3246 1.28397 16.0015 2.16267 16.4417C3.60637 17.1646 3.21394 14.6792 2.90618 13.9377C2.32184 12.5304 1.49183 11.0486 1.73566 9.48918C2.12203 7.01521 4.77519 6.13253 6.83582 6.71288C9.01372 7.32647 9.84345 10.2592 8.21913 11.3872C6.96677 12.2569 5.40482 12.2723 4.00105 12.0769C3.61455 12.0231 3.20237 12.37 3.47132 12.7573C3.82608 13.2685 4.97443 13.4212 5.52942 13.4729C6.24415 13.5391 6.7386 13.5236 7.42299 13.3267C8.51772 13.0116 8.68084 13.7766 9.70164 14.1903C10.097 14.3506 11.2317 14.2954 11.3559 13.8163C11.54 13.1045 10.122 12.5455 9.61429 12.3243C10.1897 11.8697 10.385 11.2198 10.5882 10.5375C12.131 5.36785 2.90745 2.56486 0.443233 7.95194Z" fill="white"/>
</g>
<defs>
<clipPath id="clip0">
<rect width="28" height="28" fill="white"/>
</clipPath>
</defs>
</svg>
