<svg width="29" height="27" viewBox="0 0 29 27" fill="none" xmlns="http://www.w3.org/2000/svg">
<g clip-path="url(#clip0)">
<path d="M23.1554 21.5902C22.9291 21.5902 22.7456 21.7592 22.7456 21.9677V25.5167C22.7456 25.6316 22.6441 25.7251 22.5193 25.7251H20.3162V18.2914C20.3162 18.083 20.1327 17.914 19.9064 17.914C19.68 17.914 19.4965 18.083 19.4965 18.2914V25.7252H15.0602L16.3467 24.4216C16.4873 24.2792 16.5535 24.0763 16.524 23.8787C16.5234 23.8749 16.5228 23.871 16.5221 23.8672L15.2968 17.2001L15.6269 16.7424C15.8094 16.8618 15.95 16.9767 16.2136 16.9767C16.4818 16.9767 16.7326 16.8384 16.856 16.6109V16.6108L18.1483 14.2251L21.0924 15.2753C21.1989 15.3174 22.7455 15.9589 22.7455 17.6528V20.2061C22.7454 20.4145 22.9289 20.5835 23.1553 20.5835C23.3816 20.5835 23.5651 20.4145 23.5651 20.2061V17.6528C23.5651 15.4209 21.4903 14.6097 21.402 14.5762C21.3995 14.5752 21.3968 14.5742 21.3942 14.5733L16.4944 12.8255V11.7671C17.2726 11.2096 17.8122 10.3833 17.9477 9.44047C18.3357 9.4153 18.6958 9.28182 18.9898 9.04894C19.3738 8.7448 19.5941 8.30214 19.5941 7.83467C19.5941 7.44672 19.4422 7.07629 19.1713 6.78764V5.38931C19.1713 2.80967 16.8927 0.710938 14.092 0.710938C11.2912 0.710938 9.01264 2.80967 9.01264 5.38931V6.82429C8.73893 7.11001 8.59007 7.46172 8.59007 7.83462C8.59007 8.30224 8.81029 8.74485 9.19439 9.04905C9.48821 9.28183 9.84805 9.41515 10.236 9.44037C10.3725 10.4008 10.9279 11.258 11.7724 11.823V12.8255L6.87784 14.5733C6.87527 14.5742 6.8727 14.5751 6.87014 14.5761C6.78178 14.6096 4.70703 15.4208 4.70703 17.6527V25.5166C4.70703 26.0478 5.17626 26.48 5.75304 26.48H9.65777C9.88411 26.48 10.0676 26.311 10.0676 26.1025C10.0676 25.8941 9.88411 25.7251 9.65777 25.7251H8.77597V18.2914C8.77597 18.083 8.59248 17.914 8.36614 17.914C8.1398 17.914 7.95631 18.083 7.95631 18.2914V25.7252H5.75309C5.62834 25.7252 5.52681 25.6316 5.52681 25.5167V17.6527C5.52681 15.9531 7.0838 15.3131 7.17942 15.2754L10.1212 14.225L11.4136 16.6108C11.5373 16.839 11.7884 16.9767 12.056 16.9767C12.3184 16.9767 12.4576 16.8635 12.6428 16.7424L12.9729 17.2001L11.7477 23.8673C11.747 23.871 11.7464 23.8748 11.7458 23.8786C11.7162 24.0761 11.7825 24.2791 11.9231 24.4217L13.2096 25.7252H11.5705C11.3442 25.7252 11.1607 25.8942 11.1607 26.1027C11.1607 26.3112 11.3442 26.4802 11.5705 26.4802H22.5194C23.0961 26.4802 23.5654 26.0479 23.5654 25.5167V21.9677C23.5653 21.7592 23.3818 21.5902 23.1554 21.5902ZM17.3806 13.9513L16.1758 16.1754C16.1458 16.1559 15.5073 15.738 14.7268 15.2275C15.0655 14.8424 14.6692 15.2929 16.215 13.5356L17.3806 13.9513ZM14.9581 16.305L14.6457 16.7382H13.6237L13.3112 16.305L14.1347 15.7663L14.9581 16.305ZM12.592 12.9473V12.2409C13.0899 12.4258 13.6221 12.5115 14.1417 12.5115C14.6791 12.5115 15.206 12.406 15.6746 12.2173V12.9504L14.1347 14.7012L12.592 12.9473ZM18.7744 7.83467C18.7743 8.08194 18.6581 8.31593 18.4553 8.47654C18.3213 8.58273 18.1594 8.65063 17.9821 8.6772V6.99229C18.4531 7.06275 18.7744 7.42261 18.7744 7.83467ZM10.2021 8.6772C9.7257 8.60599 9.40974 8.2432 9.40974 7.83462C9.40974 7.43107 9.77296 7.10261 10.2021 7.01126V8.6772ZM10.2241 6.24206C10.0936 6.25585 9.94395 6.28842 9.83242 6.32335V5.38931C9.83242 3.22595 11.7432 1.46595 14.092 1.46595C16.4408 1.46595 18.3516 3.22595 18.3516 5.38931V6.29743C18.2325 6.26406 18.1089 6.24201 17.9821 6.23164C17.9821 5.8674 17.9855 5.93766 16.6918 4.6566C16.4539 4.42115 16.0604 4.37183 15.7609 4.55206C14.333 5.41115 12.5912 5.84274 10.9841 5.73644C10.6316 5.71213 10.3105 5.92599 10.2241 6.24206ZM11.0218 8.97441V6.61934V6.49527C12.7909 6.5907 14.6457 6.10662 16.1441 5.22277C16.7375 5.80952 17.0588 6.11729 17.1624 6.23436C17.1624 6.53051 17.1624 8.63538 17.1624 8.97435C17.1624 10.5068 15.8058 11.7564 14.1418 11.7564C12.2733 11.7565 11.0218 10.4214 11.0218 8.97441ZM12.0937 16.1754L10.8888 13.9513L12.0524 13.5363L13.5409 15.2286C12.7839 15.7237 12.1624 16.1305 12.0937 16.1754ZM12.5639 23.9486L13.7502 17.4931H14.5191L15.7053 23.9486L14.1346 25.5402L12.5639 23.9486Z" fill="#0060B8"/>
</g>
<defs>
<clipPath id="clip0">
<rect width="27.978" height="25.7692" fill="white" transform="translate(0.144531 0.710938)"/>
</clipPath>
</defs>
</svg>
