<svg width="27" height="28" viewBox="0 0 27 28" fill="none" xmlns="http://www.w3.org/2000/svg">
<path d="M14.7714 10.7627H11.7128V7.7041C11.7128 7.42271 11.4845 7.19434 11.2031 7.19434C10.9217 7.19434 10.6933 7.42271 10.6933 7.7041V10.7627H7.63476C7.35337 10.7627 7.125 10.991 7.125 11.2724C7.125 11.5538 7.35337 11.7822 7.63476 11.7822H10.6933V14.8408C10.6933 15.1221 10.9217 15.3505 11.2031 15.3505C11.4845 15.3505 11.7128 15.1221 11.7128 14.8408V11.7822H14.7714C15.0528 11.7822 15.2812 11.5538 15.2812 11.2724C15.2812 10.991 15.0528 10.7627 14.7714 10.7627Z" fill="white"/>
<path d="M26.3556 26.7044L18.781 18.827C20.713 16.8894 21.91 14.2183 21.91 11.2724C21.91 5.36933 17.108 0.567383 11.205 0.567383C5.30195 0.567383 0.5 5.36933 0.5 11.2724C0.5 17.1754 5.30195 21.9773 11.205 21.9773C13.7961 21.9773 16.1741 21.0511 18.0276 19.5142L25.6205 27.4109C25.7204 27.5154 25.854 27.5674 25.988 27.5674C26.1155 27.5674 26.2424 27.52 26.3413 27.4252C26.5442 27.2299 26.5503 26.9072 26.3556 26.7044ZM1.51952 11.2724C1.51952 5.9316 5.86421 1.5869 11.205 1.5869C16.5457 1.5869 20.8904 5.9316 20.8904 11.2724C20.8904 16.6131 16.5457 20.9578 11.205 20.9578C5.86421 20.9578 1.51952 16.6131 1.51952 11.2724Z" fill="white"/>
</svg>
